<svg width="45" height="45" viewBox="0 0 45 45" fill="none" xmlns="http://www.w3.org/2000/svg">
<circle cx="22.5" cy="22.5" r="22.5" fill="#FFE0EB"/>
<g clip-path="url(#clip0_45_4257)">
<path d="M22.8594 32H21.4531C20.7552 32 20.1875 31.4323 20.1875 30.7344V22.0156C20.1875 21.3177 20.7552 20.75 21.4531 20.75H22.8594C23.5573 20.75 24.125 21.3177 24.125 22.0156V30.7344C24.125 31.4323 23.5572 32 22.8594 32Z" fill="#FF82AC"/>
<path d="M17.5156 32H16.1094C15.4115 32 14.8438 31.4323 14.8438 30.7344V24.8281C14.8438 24.1302 15.4115 23.5625 16.1094 23.5625H17.5156C18.2135 23.5625 18.7813 24.1302 18.7813 24.8281V30.7344C18.7813 31.4323 18.2135 32 17.5156 32Z" fill="#FF82AC"/>
<path d="M28.203 32H26.7968C26.0989 32 25.5311 31.4323 25.5311 30.7344V19.0625H24.7584C24.3971 19.0625 24.0789 18.8586 23.9279 18.5304C23.777 18.2022 23.8293 17.8279 24.0644 17.5536C24.0671 17.5504 24.0698 17.5473 24.0725 17.5442L27.081 14.1871C27.1877 14.068 27.34 14 27.4999 14C27.6598 14 27.8121 14.068 27.9188 14.1871L30.9272 17.5442C30.93 17.5473 30.9327 17.5504 30.9354 17.5536C31.1705 17.8278 31.2228 18.2022 31.0718 18.5304C30.9209 18.8586 30.6027 19.0625 30.2414 19.0625H29.4687V30.7344C29.4687 31.4323 28.9009 32 28.203 32Z" fill="#FF82AC"/>
</g>
<defs>
<clipPath id="clip0_45_4257">
<rect width="18" height="18" fill="white" transform="translate(14 14)"/>
</clipPath>
</defs>
</svg>
