<svg width="46" height="45" viewBox="0 0 46 45" fill="none" xmlns="http://www.w3.org/2000/svg">
<circle cx="23" cy="22.5" r="22.5" fill="#DCFAF8"/>
<g clip-path="url(#clip0_45_4270)">
<path d="M32.4862 17.1346C32.4097 16.2645 31.3535 15.8772 30.7352 16.4955L29.8521 17.3786C29.6547 17.576 29.3305 17.5792 29.1295 17.3857C28.9209 17.185 28.9317 16.8391 29.1367 16.634L30.0053 15.7655C30.623 15.1478 30.2372 14.0912 29.3665 14.0145C26.9998 13.8064 25.1226 16.0075 25.7502 18.3414L14.9993 29.0924C14.3336 29.758 14.3335 30.8356 14.9993 31.5014C15.6635 32.1656 16.7442 32.1656 17.4084 31.5014L28.1566 20.7533C30.4626 21.3803 32.6965 19.5228 32.4862 17.1346Z" fill="#16DBCC"/>
<path d="M15.6244 18.1293C15.6496 18.179 15.6825 18.2245 15.7219 18.2639L17.248 19.7899C17.4539 19.9958 17.7878 19.9958 17.9937 19.7899L18.7698 19.0138L20.2519 20.4959L18.6674 22.0804C18.2568 22.4918 18.2571 23.1608 18.6677 23.5717L18.834 23.738L24.2422 18.3301L24.0759 18.1639C23.6632 17.7519 22.9973 17.7513 22.584 18.1639L20.9976 19.7502L19.5155 18.2681L20.2916 17.492C20.4976 17.2861 20.4976 16.9522 20.2916 16.7462L18.7656 15.2202C18.7257 15.1803 18.6798 15.1471 18.6294 15.1219L16.6789 14.142C16.4757 14.0399 16.2301 14.0795 16.0693 14.2403L14.7365 15.573C14.5753 15.7343 14.5359 15.9808 14.639 16.1842L15.6244 18.1293Z" fill="#16DBCC"/>
<path d="M27.33 23.0719L23.5762 26.8257L27.8872 31.1377C28.9242 32.1748 30.6032 32.1751 31.6406 31.1377C32.6756 30.1028 32.6756 28.4189 31.6406 27.3843L27.33 23.0719ZM30.419 29.9151C30.2144 30.1204 29.8797 30.1213 29.6734 29.9151L26.6803 26.922C26.4743 26.716 26.4743 26.382 26.6803 26.1764C26.8863 25.9704 27.2203 25.9704 27.426 26.1764L30.419 29.1694C30.625 29.3755 30.625 29.7091 30.419 29.9151Z" fill="#16DBCC"/>
</g>
<defs>
<clipPath id="clip0_45_4270">
<rect width="18" height="18" fill="white" transform="translate(14.5 14)"/>
</clipPath>
</defs>
</svg>
