<svg width="46" height="45" viewBox="0 0 46 45" fill="none" xmlns="http://www.w3.org/2000/svg">
<circle cx="23" cy="22.5" r="22.5" fill="#FFF5D9"/>
<g clip-path="url(#clip0_45_4243)">
<path d="M31 17.75H27.25V17C27.25 16.1727 26.5773 15.4999 25.75 15.4999H21.25C20.4227 15.4999 19.75 16.1727 19.75 17V17.7499H16C15.1727 17.75 14.5 18.4227 14.5 19.25V21.5C14.5 22.3273 15.1727 23 16 23H22V22.625C22 22.4177 22.1678 22.2499 22.375 22.2499H24.625C24.8323 22.2499 25 22.4177 25 22.625V23H31.0001C31.8273 23 32.5 22.3273 32.5 21.5V19.25C32.5 18.4227 31.8273 17.75 31 17.75ZM25.75 17.75H21.25V17H25.75V17.75Z" fill="#FFBB38"/>
<path d="M32.292 23.4046C32.1642 23.3413 32.0115 23.3559 31.8987 23.4416C31.6321 23.6434 31.3215 23.75 31 23.75H25V24.875C25 25.0822 24.8323 25.25 24.625 25.25H22.375C22.1677 25.25 22 25.0822 22 24.875V23.75H16C15.6785 23.75 15.3679 23.6434 15.1013 23.4416C14.9881 23.3552 14.8358 23.3405 14.708 23.4046C14.5806 23.468 14.5 23.598 14.5 23.7405V29C14.5 29.8273 15.1727 30.5 16 30.5H31C31.8273 30.5 32.5 29.8273 32.5 29V23.7405C32.5 23.598 32.4194 23.468 32.292 23.4046Z" fill="#FFBB38"/>
</g>
<defs>
<clipPath id="clip0_45_4243">
<rect width="18" height="18" fill="white" transform="translate(14.5 14)"/>
</clipPath>
</defs>
</svg>
