<svg width="45" height="45" viewBox="0 0 45 45" fill="none" xmlns="http://www.w3.org/2000/svg">
<circle cx="22.5" cy="22.5" r="22.5" fill="#E7EDFF"/>
<g clip-path="url(#clip0_1_2)">
<path d="M22.8717 22.6707C24.0628 22.6707 25.0943 22.2434 25.9371 21.4005C26.7799 20.5577 27.2071 19.5265 27.2071 18.3352C27.2071 17.1443 26.7799 16.1129 25.937 15.2699C25.094 14.4272 24.0627 14 22.8717 14C21.6803 14 20.6491 14.4272 19.8063 15.27C18.9636 16.1128 18.5362 17.1441 18.5362 18.3352C18.5362 19.5265 18.9636 20.5579 19.8065 21.4006C20.6494 22.2433 21.6807 22.6707 22.8717 22.6707Z" fill="#396AFF"/>
<path d="M30.4576 27.841C30.4333 27.4903 30.3841 27.1077 30.3117 26.7037C30.2387 26.2966 30.1446 25.9119 30.032 25.5602C29.9157 25.1966 29.7575 24.8377 29.5619 24.4937C29.359 24.1366 29.1206 23.8257 28.853 23.5699C28.5733 23.3022 28.2308 23.087 27.8348 22.93C27.4401 22.7739 27.0027 22.6948 26.5348 22.6948C26.3511 22.6948 26.1734 22.7702 25.8302 22.9936C25.619 23.1314 25.3719 23.2907 25.0961 23.4669C24.8604 23.6171 24.5409 23.7579 24.1464 23.8853C23.7614 24.0099 23.3706 24.073 22.9849 24.073C22.5991 24.073 22.2084 24.0099 21.8231 23.8853C21.4289 23.758 21.1095 23.6172 20.874 23.467C20.6008 23.2924 20.3536 23.1331 20.1393 22.9935C19.7965 22.7701 19.6187 22.6947 19.4349 22.6947C18.9669 22.6947 18.5296 22.7739 18.1351 22.9302C17.7393 23.0869 17.3967 23.3021 17.1167 23.57C16.8493 23.826 16.6108 24.1367 16.4081 24.4937C16.2126 24.8377 16.0544 25.1965 15.938 25.5603C15.8255 25.912 15.7314 26.2966 15.6584 26.7037C15.586 27.1072 15.5368 27.4899 15.5125 27.8415C15.4886 28.1859 15.4766 28.5433 15.4766 28.9044C15.4766 29.844 15.7752 30.6046 16.3642 31.1656C16.946 31.7192 17.7157 32 18.6517 32H27.3188C28.2548 32 29.0243 31.7193 29.6062 31.1656C30.1953 30.6051 30.494 29.8443 30.494 28.9042C30.4938 28.5416 30.4816 28.1838 30.4576 27.841Z" fill="#396AFF"/>
</g>
<defs>
<clipPath id="clip0_1_2">
<rect width="17.9999" height="18" fill="white" transform="translate(14 14)"/>
</clipPath>
</defs>
</svg>
