<svg width="118" height="18" viewBox="0 0 118 18" fill="none" xmlns="http://www.w3.org/2000/svg">
<path d="M5.588 9.146L4.664 17H0.748L3.234 0.83L9.79 10.224L16.368 0.83L18.854 17H14.938L14.014 9.146L9.79 15.57L5.588 9.146ZM23.9718 1.6H27.6898V11.676C27.6898 12.4533 27.8951 13.084 28.3058 13.568C28.7164 14.052 29.3324 14.294 30.1538 14.294C30.9898 14.294 31.6131 14.052 32.0238 13.568C32.4344 13.084 32.6398 12.4533 32.6398 11.676V1.6H36.3578V11.94C36.3578 12.908 36.1964 13.7513 35.8738 14.47C35.5658 15.1887 35.1258 15.7827 34.5538 16.252C33.9964 16.7067 33.3364 17.0513 32.5738 17.286C31.8258 17.5207 31.0191 17.638 30.1538 17.638C29.2884 17.638 28.4818 17.5207 27.7338 17.286C26.9858 17.0513 26.3258 16.7067 25.7538 16.252C25.1964 15.7827 24.7564 15.1887 24.4338 14.47C24.1258 13.7513 23.9718 12.908 23.9718 11.94V1.6ZM44.8315 4.79V1.6H51.7175V4.79H44.8315ZM44.8315 10.818V7.826H51.4975V10.818H44.8315ZM42.3675 1.6H45.9315V17H42.3675V1.6ZM55.1817 4.922V1.6H67.3697V4.922H63.1237V17H59.4057V4.922H55.1817Z" fill="#4DB7FD"/>
<path d="M71.9137 1.6H75.6317V17H71.9137V1.6ZM74.2457 4.658V1.6H77.2597C78.565 1.6 79.6577 1.80533 80.5377 2.216C81.4324 2.612 82.107 3.184 82.5617 3.932C83.0164 4.68 83.2437 5.582 83.2437 6.638C83.2437 7.66467 83.0164 8.55933 82.5617 9.322C82.107 10.07 81.4324 10.6493 80.5377 11.06C79.6577 11.456 78.565 11.654 77.2597 11.654H74.2457V8.596H77.2597C78.0077 8.596 78.5944 8.42733 79.0197 8.09C79.445 7.75267 79.6577 7.26867 79.6577 6.638C79.6577 5.99267 79.445 5.50133 79.0197 5.164C78.5944 4.82667 78.0077 4.658 77.2597 4.658H74.2457ZM89.3539 14.03L89.6179 11.192H97.2519L97.4939 14.03H89.3539ZM93.3799 7.254L91.2239 12.226L91.3999 13.04L89.4859 17H85.2839L93.3799 0.632L101.498 17H97.2739L95.4259 13.194L95.5579 12.248L93.3799 7.254ZM113.071 1.6H117.339L111.949 10.73V17H108.165V10.752L102.775 1.6H107.043L110.057 7.386L113.071 1.6Z" fill="white"/>
</svg>
