<svg width="24" height="24" viewBox="0 0 24 24" fill="none" xmlns="http://www.w3.org/2000/svg">
<g clip-path="url(#clip0_32_163)">
<path d="M11.9996 22.8533C12.4195 22.8437 12.8225 22.6858 13.1373 22.4076C13.4521 22.1294 13.6583 21.7489 13.7196 21.3333H10.2129C10.2759 21.7602 10.4918 22.1497 10.8204 22.4293C11.1491 22.7089 11.5681 22.8596 11.9996 22.8533Z" fill="#656575"/>
<path d="M21.8996 18.7534L21.673 18.5534C21.0299 17.9805 20.4671 17.3234 19.9996 16.6001C19.4891 15.6018 19.1831 14.5115 19.0996 13.3934V10.1001C19.0969 9.70002 19.0612 9.30089 18.993 8.90672C17.8637 8.67461 16.8493 8.0594 16.1216 7.16524C15.3939 6.27108 14.9975 5.15292 14.9996 4.00006V3.58006C14.3036 3.23751 13.5557 3.01226 12.7863 2.91339V2.07339C12.7863 1.83735 12.6925 1.61097 12.5256 1.44406C12.3587 1.27716 12.1323 1.18339 11.8963 1.18339C11.6602 1.18339 11.4339 1.27716 11.267 1.44406C11.1001 1.61097 11.0063 1.83735 11.0063 2.07339V2.94672C9.28344 3.18976 7.70668 4.04788 6.56711 5.36268C5.42754 6.67747 4.80211 8.36015 4.80629 10.1001V13.3934C4.7228 14.5115 4.41681 15.6018 3.90629 16.6001C3.44688 17.3216 2.89309 17.9786 2.25963 18.5534L2.03296 18.7534V20.6334H21.8996V18.7534Z" fill="#656575"/>
<path d="M19.9996 7.33337C21.8405 7.33337 23.3329 5.84099 23.3329 4.00004C23.3329 2.15909 21.8405 0.666708 19.9996 0.666708C18.1586 0.666708 16.6663 2.15909 16.6663 4.00004C16.6663 5.84099 18.1586 7.33337 19.9996 7.33337Z" fill="#FF2727"/>
</g>
<defs>
<clipPath id="clip0_32_163">
<rect width="24" height="24" fill="white"/>
</clipPath>
</defs>
</svg>
